<svg width="65" height="18" viewBox="0 0 65 18" fill="none" xmlns="http://www.w3.org/2000/svg">
    <path id="matter-path" d="M9.45227 17H6.71227L1.17227 3.5H4.63227L8.09227 12.22L11.5323 3.5H14.9923L9.45227 17ZM16.6205 10.24C16.6205 8.26 17.3205 6.6 18.7005 5.28C20.0805 3.94 21.8005 3.28 23.8405 3.28C25.2605 3.28 26.5605 3.62 27.7205 4.32C28.9005 5.02 29.7805 5.98 30.3605 7.2L27.1205 8.38C26.5005 7.18 25.2605 6.46 23.8405 6.46C22.7605 6.46 21.8605 6.82 21.1405 7.56C20.4405 8.28 20.0805 9.18 20.0805 10.24C20.0805 11.3 20.4205 12.2 21.1205 12.94C21.8205 13.68 22.6805 14.04 23.7005 14.04C25.0805 14.04 26.3805 13.24 26.9405 12.02H23.2205V9.32H30.7005C30.7405 9.8 30.7605 10.06 30.7605 10.08C30.7405 12.12 30.0805 13.82 28.7405 15.18C27.4005 16.54 25.7205 17.22 23.7005 17.22C21.7205 17.22 20.0405 16.56 18.6605 15.24C17.3005 13.9 16.6205 12.24 16.6205 10.24ZM39.6945 17H34.0945V3.5H39.6945C41.7145 3.5 43.4145 4.16 44.7745 5.46C46.1345 6.76 46.8145 8.34 46.8145 10.24C46.8145 12.14 46.1345 13.76 44.7745 15.06C43.4145 16.36 41.7145 17 39.6945 17ZM39.6945 6.56H37.4145V13.96H39.6945C40.7345 13.96 41.5945 13.6 42.2945 12.88C42.9945 12.16 43.3545 11.28 43.3545 10.24C43.3545 9.2 42.9945 8.32 42.2945 7.62C41.5945 6.92 40.7145 6.56 39.6945 6.56ZM49.937 10.24C49.937 8.26 50.617 6.62 51.977 5.28C53.357 3.94 55.037 3.28 57.057 3.28C58.517 3.28 59.817 3.64 60.957 4.36C62.097 5.06 62.957 6.02 63.537 7.2L60.297 8.38C59.677 7.2 58.497 6.46 57.057 6.46C55.997 6.46 55.137 6.82 54.437 7.54C53.737 8.26 53.397 9.16 53.397 10.24C53.397 11.32 53.737 12.22 54.437 12.96C55.137 13.68 55.997 14.04 57.057 14.04C58.497 14.04 59.677 13.3 60.297 12.12L63.537 13.3C62.957 14.48 62.097 15.44 60.957 16.16C59.817 16.86 58.517 17.22 57.057 17.22C55.037 17.22 53.337 16.56 51.977 15.22C50.617 13.88 49.937 12.22 49.937 10.24Z" fill="#EEEEEE"/>
</svg>
